<?xml version="1.0" encoding="UTF-8"?> <svg xmlns="http://www.w3.org/2000/svg" id="Layer_2" viewBox="0 0 32 32"><defs><style>.cls-1{fill:none;}.cls-2{fill:#fff;}.cls-3{fill:#e13d21;}.cls-4{fill:#202020;}</style></defs><g id="Layer_1-2"><path id="Path_15410" class="cls-4" d="M31.99,16.3c.06,8.61-6.86,15.64-15.45,15.7-.17,0-.34,0-.51,0C7.21,32.03,.03,24.89,0,16.06-.03,7.22,7.09,.03,15.91,0c.21,0,.42,0,.62,0,8.63,.09,15.56,7.18,15.47,15.83,0,.15,0,.3-.01,.46"></path><g><rect class="cls-1" x="4.83" y="10.84" width="23.43" height="10.65"></rect><path id="Path_15407" class="cls-2" d="M20.76,15.9v-4.3c0-.39,0-.4,.4-.4,1.09,0,2.17,0,3.26,0,.68-.02,1.35,.12,1.97,.39,.76,.33,1.28,1.03,1.39,1.84,.15,.76,.09,1.54-.17,2.26-.33,.79-1.06,1.35-1.91,1.47-.68,.1-1.36,.16-2.04,.18-.49,.03-.49,0-.49,.51,0,.79,0,1.57,0,2.36,0,.4-.01,.41-.4,.41-.55,0-1.1-.01-1.64,0-.29,0-.38-.09-.38-.37,.01-1.45,0-2.91,0-4.36m2.42-1.64h0v.75c0,.42,0,.43,.44,.42,.35-.01,.7-.04,1.04-.05,.57-.04,1.02-.49,1.05-1.06,0-.56-.41-1.04-.96-1.11-.42-.04-.84-.04-1.25-.07-.26-.02-.33,.1-.32,.33,.01,.27,0,.54,0,.81"></path><path id="Path_15408" class="cls-2" d="M13.93,18.04c.7,.8,1.51,1.08,2.48,.83,.65-.17,.99-.76,.72-1.26-.23-.33-.57-.57-.96-.67-.62-.23-1.27-.42-1.88-.66-1.91-.76-1.89-2.88-1.03-4.06,.58-.78,1.47-1.27,2.44-1.34,1.01-.16,2.05,0,2.96,.45,.02,0,.04,.01,.06,.02,.72,.37,.74,.48,.19,1.05-.26,.27-.52,.55-.76,.84-.15,.18-.27,.22-.46,.04-.65-.49-1.52-.57-2.24-.21-.28,.13-.45,.41-.46,.71-.03,.32,.16,.62,.46,.73,.55,.22,1.11,.43,1.67,.61,.62,.16,1.19,.47,1.66,.9,.75,.8,.76,1.75,.5,2.72-.26,.99-1.05,1.75-2.04,1.99-1.24,.4-2.58,.32-3.75-.24-.32-.17-.62-.36-.89-.59-.06-.05-.12-.24-.08-.29,.46-.53,.94-1.05,1.43-1.59"></path><path id="Path_15409" class="cls-2" d="M4.86,11.21c.13,0,.24-.02,.35-.02,1.94,0,3.89,0,5.83,0,.39,0,.41,.01,.41,.4,0,.4,0,.8,0,1.2,0,.24-.08,.33-.33,.33-1.18-.01-2.35,0-3.53-.01-.29,0-.38,.09-.37,.38,.02,.4,.01,.8,0,1.2,0,.21,.07,.27,.28,.27,1.05,0,2.09,0,3.14,0,.27,0,.35,.09,.33,.34-.02,.42-.02,.84,0,1.26,.01,.25-.09,.32-.33,.32-1.01,0-2.01,0-3.02,0q-.4,0-.4,.39c0,1.01,0,2.01,0,3.02,0,.27-.08,.37-.36,.36-.59-.02-1.18-.01-1.76,0-.19,0-.29-.04-.29-.27,0-2.98,.01-5.96,0-8.94,0-.07,.01-.14,.02-.21"></path><path id="Path_15410-2" class="cls-3" d="M28.26,20.14c0,.74-.59,1.34-1.33,1.35-.01,0-.03,0-.04,0-.76,0-1.37-.61-1.38-1.37,0-.76,.61-1.37,1.37-1.38,.02,0,.04,0,.05,0,.74,0,1.34,.62,1.33,1.36v.04"></path></g></g></svg> 